<?xml version="1.0" standalone="no"?>
<!DOCTYPE svg PUBLIC "-//W3C//DTD SVG 20010904//EN"
 "http://www.w3.org/TR/2001/REC-SVG-20010904/DTD/svg10.dtd">
<svg version="1.0" xmlns="http://www.w3.org/2000/svg"
 width="260.000000pt" height="260.000000pt" viewBox="0 0 260.000000 260.000000"
 preserveAspectRatio="xMidYMid meet">
<metadata>
Created by potrace 1.11, written by Peter Selinger 2001-2013
</metadata>
<g transform="translate(0.000000,260.000000) scale(0.100000,-0.100000)"
fill="#000000" stroke="none">
<path d="M1105 2269 c-347 -71 -621 -311 -738 -644 -43 -122 -51 -174 -52
-325 0 -147 9 -202 51 -322 75 -213 202 -378 389 -502 79 -52 236 -126 269
-126 10 0 25 -4 34 -9 28 -15 90 -22 217 -27 276 -9 526 90 727 290 185 185
284 424 285 692 1 262 -93 500 -274 689 -230 241 -582 352 -908 284z"/>
</g>
</svg>
